<?xml version="1.0" encoding="utf-8"?>
<!-- Generator: Adobe Illustrator 22.0.0, SVG Export Plug-In . SVG Version: 6.00 Build 0)  -->
<svg version="1.1" id="Layer_1" xmlns="http://www.w3.org/2000/svg" xmlns:xlink="http://www.w3.org/1999/xlink" x="0px" y="0px"
	 viewBox="0 0 100 100" style="enable-background:new 0 0 100 100;" xml:space="preserve">
<style type="text/css">
	.st0{fill:#00AEEF;}
	.st1{fill:#4189C9;}
	.st2{fill:#D7DF23;}
	.st3{fill:#A5B439;}
</style>
<g>
	<g>
		<polygon class="st0" points="73.9,79.1 73.8,79.3 61.2,79.4 51.9,95.6 83.3,95.5 		"/>
		<polygon class="st1" points="83.5,41.5 52.1,41.4 61.4,57.7 74,57.7 		"/>
		<path class="st0" d="M98.9,68.3L83.5,41.5L74,57.7l6.2,10.9l18.3-0.1C98.7,68.4,98.8,68.4,98.9,68.3z"/>
		<path class="st1" d="M98.7,68.6C98.7,68.6,98.7,68.5,98.7,68.6L80,68.4l-6.1,10.7l9.4,16.4L98.7,68.6z"/>
	</g>
	<g>
		<polygon class="st2" points="23.6,91.3 71.1,91.5 57,66.8 37.9,66.8 		"/>
		<polygon class="st3" points="38.1,34.4 38.3,34.2 57.3,34.1 71.5,9.4 23.9,9.7 		"/>
		<path class="st3" d="M0.3,50.7l23.3,40.6l14.4-24.6l-9.5-16.5L0.7,50.5C0.6,50.6,0.4,50.7,0.3,50.7z"/>
		<path class="st2" d="M0.5,50.4c0,0,0.1,0,0.1,0l28.2,0.2l9.3-16.2L23.9,9.7L0.5,50.4z"/>
	</g>
	<g>
		<path class="st0" d="M89.2,32L73.9,5.1l-9.5,16.2l6.2,10.9L89,32.1C89.1,32.1,89.2,32,89.2,32z"/>
		<path class="st1" d="M89.2,31.1C89.1,31.1,89.1,31.1,89.2,31.1L70.5,31l-6.1,10.7L73.7,58L89.2,31.1z"/>
	</g>
</g>
<polygon class="st1" points="74.1,5 41.7,5.1 51.2,21.4 64.2,21.4 "/>
</svg>
